<svg width="135" height="136" viewBox="0 0 135 136" fill="none" xmlns="http://www.w3.org/2000/svg">
<path d="M70.206 81.5744C77.9072 80.0914 82.9482 72.6461 81.4652 64.9448C79.9822 57.2435 72.5368 52.2026 64.8355 53.6856C57.1342 55.1686 52.0933 62.614 53.5763 70.3153C55.0593 78.0165 62.5047 83.0574 70.206 81.5744Z" fill="#303030"/>
<path d="M100.7 42.6001C99.9 40.6001 99 39.2001 97.5 37.7001C96 36.2001 94.6 35.3001 92.6 34.5001C91.1 33.9001 88.9 33.2001 84.7 33.0001C80.2 32.8001 78.9 32.8 67.5 32.8C56.2 32.8 54.8 32.8001 50.3 33.0001C46.2 33.2001 43.9 33.9001 42.4 34.5001C40.4 35.3001 39 36.2001 37.5 37.7001C36 39.2001 35.1 40.6001 34.3 42.6001C33.7 44.1001 33 46.3001 32.8 50.5001C32.6 55.0001 32.6 56.3001 32.6 67.7001C32.6 79.0001 32.6 80.4001 32.8 84.9001C33 89.0001 33.7 91.3 34.3 92.8C35.1 94.8 36 96.2001 37.5 97.7001C39 99.2001 40.4 100.1 42.4 100.9C43.9 101.5 46.1 102.2 50.3 102.4C54.8 102.6 56.1 102.6 67.5 102.6C78.8 102.6 80.2 102.6 84.7 102.4C88.8 102.2 91.1 101.5 92.6 100.9C94.6 100.1 96 99.2001 97.5 97.7001C99 96.2001 99.9 94.8 100.7 92.8C101.3 91.3 102 89.1001 102.2 84.9001C102.4 80.4001 102.4 79.1001 102.4 67.7001C102.4 56.4001 102.4 55.0001 102.2 50.5001C101.9 46.3001 101.2 44.1001 100.7 42.6001ZM67.5 89.4001C55.4 89.4001 45.7 79.6001 45.7 67.6001C45.7 55.5001 55.5 45.8 67.5 45.8C79.5 45.8 89.3 55.6001 89.3 67.6001C89.4 79.7001 79.6 89.4001 67.5 89.4001ZM90.2 50.0001C87.4 50.0001 85.1 47.7001 85.1 44.9001C85.1 42.1001 87.4 39.8 90.2 39.8C93 39.8 95.3 42.1001 95.3 44.9001C95.3 47.7001 93 50.0001 90.2 50.0001Z" fill="#303030"/>
<path d="M67.5 0.100098C30.2 0.100098 0 30.3001 0 67.6001C0 104.9 30.2 135.1 67.5 135.1C104.8 135.1 135 104.9 135 67.6001C135 30.3001 104.8 0.100098 67.5 0.100098ZM109.8 85.1001C109.6 89.6001 108.9 92.7001 107.8 95.4001C106.7 98.2001 105.3 100.6 102.9 102.9C100.5 105.3 98.2 106.7 95.4 107.8C92.7 108.9 89.6 109.6 85.1 109.8C80.6 110 79.1 110.1 67.6 110.1C56.1 110.1 54.6 110.1 50.1 109.8C45.6 109.6 42.5 108.9 39.8 107.8C37 106.7 34.6 105.3 32.3 102.9C29.9 100.5 28.5 98.2001 27.4 95.4001C26.3 92.7001 25.6 89.6001 25.4 85.1001C25.2 80.6001 25.1 79.1001 25.1 67.6001C25.1 56.1001 25.1 54.6001 25.4 50.1001C25.6 45.6001 26.3 42.5001 27.4 39.8001C28.5 37.0001 29.9 34.6001 32.3 32.3001C34.7 29.9001 37 28.5001 39.8 27.4001C42.5 26.3001 45.6 25.6001 50.1 25.4001C54.6 25.2001 56.1 25.1001 67.6 25.1001C79.1 25.1001 80.6 25.1001 85.1 25.4001C89.6 25.6001 92.7 26.3001 95.4 27.4001C98.2 28.5001 100.6 29.9001 102.9 32.3001C105.3 34.7001 106.7 37.0001 107.8 39.8001C108.9 42.5001 109.6 45.6001 109.8 50.1001C110 54.6001 110.1 56.1001 110.1 67.6001C110.1 79.1001 110 80.6001 109.8 85.1001Z" fill="#303030"/>
</svg>
