<svg width="136" height="136" viewBox="0 0 136 136" fill="none" xmlns="http://www.w3.org/2000/svg">
<path d="M67.6 0.100098C30.3 0.100098 0.0999756 30.3001 0.0999756 67.6001C0.0999756 104.9 30.3 135.1 67.6 135.1C104.9 135.1 135.1 104.9 135.1 67.6001C135.1 30.3001 104.8 0.100098 67.6 0.100098ZM45.3 104.5C40.5 104.4 35.7 104.5 30.9 104.5C30.1 104.5 29.9 104.3 29.9 103.5C29.9 86.4001 29.9 69.3001 29.9 52.2001C29.9 51.5001 30.1 51.2001 30.8 51.2001C35.7 51.2001 40.5 51.2001 45.4 51.2001C46.3 51.2001 46.5 51.6001 46.5 52.4001C46.5 60.9001 46.5 69.4001 46.5 78.0001C46.5 86.5001 46.5 94.9001 46.5 103.4C46.5 104.2 46.3 104.5 45.3 104.5ZM38.2 43.9001C33 43.9001 28.6 39.6001 28.6 34.4001C28.6 29.1001 32.9 24.8001 38.2 24.8001C43.4 24.8001 47.8 29.1001 47.8 34.3001C47.8 39.6001 43.5 43.9001 38.2 43.9001ZM108.6 103.4C108.6 104.3 108.4 104.5 107.5 104.5C102.7 104.5 97.9 104.5 93.1 104.5C92.3 104.5 92.1 104.2 92.1 103.4C92.1 94.5001 92.1 85.7001 92.1 76.8001C92.1 74.6001 92 72.4001 91.3 70.2001C90.2 66.2001 87.3 64.2001 83.1 64.4001C77.4 64.7001 74.4 67.5001 73.7 73.3001C73.5 74.7001 73.4 76.1001 73.4 77.5001C73.4 86.1001 73.4 94.8001 73.4 103.4C73.4 104.3 73.2 104.5 72.3 104.5C67.5 104.5 62.6 104.5 57.8 104.5C57 104.5 56.8 104.3 56.8 103.5C56.8 86.4001 56.8 69.3001 56.8 52.2001C56.8 51.4001 57.1 51.2001 57.9 51.2001C62.5 51.2001 67.1 51.2001 71.7 51.2001C72.5 51.2001 72.8 51.5001 72.7 52.3001C72.7 54.3001 72.7 56.4001 72.7 58.4001C73.8 57.2001 74.7 55.9001 75.9 54.8001C79.4 51.5001 83.5 49.8001 88.4 49.9001C91.1 49.9001 93.7 50.1001 96.2 50.9001C102.1 52.6001 105.5 56.6001 107.1 62.4001C108.3 66.7001 108.5 71.1001 108.5 75.5001C108.6 84.8001 108.6 94.1001 108.6 103.4Z" fill="#303030"/>
</svg>
