<?xml version="1.0" encoding="utf-8"?>
<!-- Generator: Adobe Illustrator 27.1.1, SVG Export Plug-In . SVG Version: 6.00 Build 0)  -->
<svg version="1.1" id="Layer_1" xmlns="http://www.w3.org/2000/svg" xmlns:xlink="http://www.w3.org/1999/xlink" x="0px" y="0px"
	 viewBox="0 0 462.2 39" style="enable-background:new 0 0 462.2 39;" xml:space="preserve">
<style type="text/css">
	.st0{fill:#E61D30;}
	.st1{fill:#16A6A9;}
	.st2{fill:#80AA40;}
	.st3{fill:#009265;}
	.st4{fill:#E94E25;}
	.st5{fill:#285759;}
	.st6{fill:#A2362D;}
	.st7{fill:#282E3C;}
	.st8{fill:#2D4350;}
	.st9{fill:#42596A;}
</style>
<path d="M144.8,4.2c0.2,0,4.6,0,6,0v25.2l0-0.1l0,0.3c0,1.7,0.8,2.5,2.5,2.6h8.4v2.9c0,0.3-0.2,0.5-0.5,0.5h-13.6
	c-4.2,0-4.8-2.3-4.8-4.4V5.9c0-1.2,0.5-1.8,1.9-1.7H144.8z"/>
<path d="M129.1,4.2h6.1v29.6c0,0,0,0.2,0,0.2c0,1.3-0.6,1.7-1.7,1.7h-6.4V5.8c0-1,0.4-1.7,1.8-1.6l-0.1,0L129.1,4.2z"/>
<path d="M0,8.7V8.6c0-1.3-0.1-2.6,0.7-3.5c0.7-0.8,1.9-0.9,3.4-0.9h17.2v3c0,0.2-0.1,0.4-0.4,0.4c0,0-10.4,0-10.4,0
	C9,7.7,8.5,8.2,8.4,9.7v8h12.2v3.1c0,0,0,0.1,0,0.1c0,0.3-0.2,0.4-0.5,0.4c0,0-11.8,0-11.8,0v12.3l0-0.1l0,0.2V34
	c0,1.2-0.6,1.7-2,1.7H0V8.7z"/>
<path d="M29.5,4.2c0.1,0,4.7,0,6.1,0v24c0,2.1,0.3,3.5,1.7,4.3c1.9,1.1,5.5,1.1,7.5,0c1.4-0.8,1.9-1.9,1.9-4.2l0-22.6
	c0-1,0.4-1.6,1.8-1.6c0,0,4.7,0,6.1,0v21.3c0,1.4,0,4.8-1.1,6.6c-1.1,1.9-2.9,3.2-5.3,3.8c-4,1.1-10.1,1.1-13.9,0
	c-4.5-1.4-6.6-4-6.6-8.4l0-21.2l0,0.1l0-0.4V5.9c0-0.6,0.2-1.1,0.4-1.3c0.2-0.2,0.6-0.4,1.4-0.3H29.5z"/>
<path d="M189.1,4.2c-1.6,0-2.5,0.7-2.9,2.2L181.1,28l-0.1,0c0,0-4.7-21.2-5.3-23.9c-1.4,0-7.2,0-7.2,0c-1.4,0-1.8,0.7-1.8,1.8v0.1
	v29.5h3.1c0.5,0,0.7-0.2,0.7-0.7V10h0.5l0.3,1.2c0.1,0.2,5.5,21.7,6.2,24.4h4.3c1.6,0,2.2-0.7,2.6-2.3l5.9-23.3h0.5
	c0,5.2,0,24.9,0,25.6c1.4,0,5.7,0,5.7,0c1.4,0,2.1-0.5,2.1-1.9V4.2C196.6,4.2,189.1,4.2,189.1,4.2"/>
<path d="M105.2,4.2c-1.5,0-2.6,0.2-3.4,0.9c-0.8,0.8-0.7,2.2-0.7,3.5v0.1v7.9c0,0.1-0.1,0.2-0.1,0.3l-5.5,4.3h5.7v14.4h6.4
	c1.3,0,2-0.5,2-1.7v-0.2l0-0.2l0,0.1V21.3h2.1c0,0,0,0,0,0h9.6c0.3,0,0.4-0.1,0.4-0.4v-0.1v-3.1h-12.2v-8c0.1-1.5,0.6-2,2.1-2.1
	c0,0,10.4,0,10.4,0c0.3,0,0.4-0.2,0.4-0.4v-3H105.2z"/>
<path d="M92.8,21.3h-8.1v14.4h6.4c1.1,0,1.7-0.3,1.7-1.7c0,0,0-0.2,0-0.2V21.3z"/>
<path class="st0" d="M92.3,15.1c0.3-0.2,0.4-0.4,0.5-0.9V4.2h-6.1l-0.2,0h0.1c-1.4,0-1.8,0.6-1.8,1.6v15.3L92.3,15.1z"/>
<path d="M64.7,33.1c3.5-0.5,4.7-2.6,4.7-5.6V5.9c0-1.3,0.7-1.7,1.6-1.7h6.5v20.4c0,5-1.1,7.6-4,9.7c-1.6,1.1-4.3,2.4-10.1,2.4
	c-3.4,0-4.9-0.2-5.1-0.2c-0.3-0.1-0.4-0.2-0.4-0.5v-2.7C59.2,33.4,62.4,33.5,64.7,33.1"/>
<path class="st1" d="M251.4,17.7L251.4,17.7c6.7-4.8,10.2-11.2,7.9-14.4c-2.3-3.2-9.5-2-16.1,2.8c-0.9,0.7-1.8,1.4-2.6,2.1
	c0.6,1.6,1.1,3.5,1.5,5.7C244.8,14.3,248.1,15.7,251.4,17.7"/>
<path class="st2" d="M254.3,19.8c-1-0.8-1.9-1.4-2.9-2.1c-3,2.2-6.2,3.6-8.9,4.2c-0.2,3-0.6,5.8-1.4,8.1c1,0.9,2,1.9,3.2,2.8
	c7.7,6,16.3,8,19.1,4.4C266,33.6,262,25.8,254.3,19.8"/>
<path class="st3" d="M242.5,19.8c0,0.7,0,1.4-0.1,2.1c2.8-0.6,5.9-2,8.9-4.2c-3.3-2.1-6.6-3.4-9.3-3.9
	C242.3,15.7,242.5,17.7,242.5,19.8"/>
<path class="st4" d="M235,15.6c0.8-2.4,2.8-5,5.5-7.5c-1.3-3.2-3-5.1-5-5.1c-3.8,0-6.9,7.5-6.9,16.8c0,9.3,3.1,16.8,6.9,16.8
	c2.3,0,4.3-2.6,5.5-6.7C235.6,24.7,233,18.8,235,15.6"/>
<path class="st5" d="M235,15.6l0.2-0.3c1.3-1.6,3.7-2.1,6.8-1.5c-0.3-2.1-0.9-4.1-1.5-5.7C237.8,10.6,235.9,13.3,235,15.6"/>
<path class="st6" d="M235.3,20.5c-0.9-1.2-0.9-2.9-0.2-4.9c-2,3.1,0.6,9,6,14.4c0.7-2.3,1.2-5.1,1.4-8.1
	C239.2,22.6,236.5,22.2,235.3,20.5"/>
<path class="st7" d="M242,13.8c-3-0.5-5.5-0.1-6.8,1.5l-0.2,0.3c-0.7,1.9-0.7,3.6,0.2,4.8c1.2,1.7,3.9,2.2,7.1,1.4
	c0-0.7,0.1-1.4,0.1-2.1C242.5,17.7,242.3,15.7,242,13.8"/>
<path class="st8" d="M275.3,10.6H269v18.5h6.5c2.4,0,7.9-0.9,7.9-9.2C283.4,13.7,280.8,10.6,275.3,10.6 M275.8,26.1h-3.4V13.7h3.4
	c1,0,4.1,0.4,4.1,6.2C279.9,25.5,277.1,26.1,275.8,26.1z"/>
<polygon class="st8" points="312,10.6 307.9,10.6 301.5,18.7 301.5,10.6 298.2,10.6 298.2,29.1 301.5,29.1 301.5,23.3 304,20.4 
	308.8,29.1 312.7,29.1 306.3,17.6 "/>
<path class="st8" d="M348.4,24.1l-2.9-8.2h-0.4h-3h-2.9v-5.6H336V16H336h-1.4h-3.6v-5.6h-3.2V16h-3.5H323h-1.8v8.8
	c-0.5,0.6-2.1,1.5-3.5,1.5c-0.9,0-1.2-0.1-1.2-1.7V16h-3.2v9c0,3.7,1.6,4.4,4.1,4.4c1.4,0,2.9-0.7,3.9-1.5c0.2,0.6,0.7,1.5,2.3,1.5
	c0.8,0,1.6-0.2,2.1-0.4l0.2-0.1l-0.4-2.1l-0.4,0.1c-0.2,0.1-0.4,0.1-0.6,0.1c-0.2,0-0.3-0.2-0.3-0.3v-7.9h3.5v7.1
	c0,2.5,0.9,3.5,2.9,3.5c1.4,0,2-0.2,2.9-0.5l0.3-0.1l-0.5-2.6l-0.4,0.2c-0.3,0.1-0.8,0.3-1.1,0.3c-0.7,0-0.9,0-0.9-1.1v-6.8h3.1h2
	h0.1v7.1c0,2.5,0.9,3.5,2.9,3.5c1.4,0,2-0.2,2.9-0.5l0.3-0.1l-0.5-2.6l-0.4,0.2c-0.3,0.1-0.8,0.3-1.1,0.3c-0.7,0-0.9,0-0.9-1.1v-6.8
	h3.9l3.8,9.8c-0.9,2.9-1.7,2.9-2.3,2.9c-0.6,0-1.3-0.1-1.9-0.3l-0.4-0.1l-0.6,2.8l0.2,0.1c0.4,0.2,1.6,0.5,2.7,0.5
	c2.5,0,3.8-1.2,5-4.9l4.6-13.4h-3.4L348.4,24.1z"/>
<path class="st8" d="M357.4,9.5c-1.2,0-1.8,0.9-1.8,1.7c0,0.6,0.3,1,0.6,1.4c0.2,0.3,0.4,0.5,0.4,0.8c0,0.3-0.5,0.9-1.4,1.4
	l-0.2,0.2l0.6,1.7l0.4-0.2c1-0.5,3.4-1.8,3.4-4.4C359.3,10.5,358.5,9.5,357.4,9.5"/>
<path class="st8" d="M363.2,20.8c-1.1-0.4-2.1-0.8-2.1-1.4c0-0.3,0-1,2.1-1c1,0,2,0.2,2.9,0.6l0.4,0.2l0.6-2.7l-0.3-0.1
	c-1-0.4-2.2-0.7-3.6-0.7c-3.3,0-5.2,1.4-5.2,3.8c0,2.5,2.3,3.3,4.1,4c1.3,0.5,2.3,0.9,2.3,1.6c0,0.8-0.3,1.5-2.6,1.5
	c-1,0-2.5-0.4-3.1-0.7l-0.4-0.2l-0.7,2.9l0.3,0.1c1.2,0.4,2.6,0.6,4.3,0.6c3.1,0,5.3-1.7,5.3-4.1C367.5,22.4,365,21.4,363.2,20.8"/>
<path class="st8" d="M288.9,16.1c-1,0.1-2,0.5-2.9,1c-0.3,0.2-0.6,0.4-0.9,0.7v11.4h3.2v-9.1c1-2.3,3.6-1.5,4.2-1.3l0.5-2.3
	C291.7,16,290.3,15.8,288.9,16.1"/>
<path class="st9" d="M382.8,22.6l1.6,0h3.1c0,0,0.2,0,0.7,0c0.4,0,0.7,0,0.9,0l-1.7-5.2c-0.7-2.1-1.2-3.6-1.4-4.6h-0.1
	c-0.3,1.3-0.7,2.4-0.9,3.2L382.8,22.6z M389.6,24.4l-1.9,0h-3.7l-1.9,0l-1.6,4.9c-0.2,0.1-0.5,0.1-0.9,0.1c-0.3,0-0.7,0-1.1-0.1
	l-0.1-0.1l6.2-18.5c0.3-0.1,0.7-0.1,1.2-0.1c0.5,0,0.9,0,1.1,0.1l6.2,18.5c-0.3,0.2-0.7,0.3-1.1,0.3c-0.4,0-0.8-0.1-0.9-0.2
	c-0.2-0.1-0.3-0.4-0.5-0.9L389.6,24.4z"/>
<path class="st9" d="M398.4,27.7h1.2c0.1,0.2,0.1,0.3,0.1,0.5c0,0.2,0,0.4,0,0.5c0,0.1,0,0.2,0,0.3c0,0.1,0,0.1,0,0.2
	c-0.3,0.1-0.6,0.1-0.8,0.1c-0.3,0-0.5,0.1-0.8,0.1c-0.7,0-1.4-0.2-1.9-0.5c-0.5-0.3-0.8-0.9-0.8-1.8V9.3l0.2-0.2h0.7
	c0.4,0,0.7,0.1,0.9,0.3c0.1,0.2,0.2,0.6,0.2,1.1v16C397.4,27.3,397.7,27.7,398.4,27.7"/>
<path class="st9" d="M404.8,27.7h1.2c0.1,0.2,0.1,0.3,0.1,0.5c0,0.2,0,0.4,0,0.5c0,0.1,0,0.2,0,0.3c0,0.1,0,0.1,0,0.2
	c-0.3,0.1-0.6,0.1-0.8,0.1c-0.3,0-0.5,0.1-0.8,0.1c-0.7,0-1.4-0.2-1.9-0.5c-0.5-0.3-0.8-0.9-0.8-1.8V9.3l0.2-0.2h0.7
	c0.4,0,0.7,0.1,0.9,0.3c0.1,0.2,0.2,0.6,0.2,1.1v16C403.8,27.3,404.1,27.7,404.8,27.7"/>
<path class="st9" d="M408,11.2c0.3-0.2,0.7-0.3,1.3-0.3c0.5,0,0.9,0.1,1.1,0.2c0.2,0.2,0.3,0.5,0.3,1c0,0.5-0.1,0.9-0.3,1
	c-0.2,0.2-0.6,0.3-1.1,0.3c-0.4,0-0.8-0.1-1-0.2c-0.3-0.1-0.4-0.5-0.4-1.1C407.9,11.8,407.9,11.4,408,11.2 M410.7,17.7v11.5
	c-0.3,0.1-0.6,0.1-1,0.1c-0.4,0-0.7,0-1-0.1V18.7c0-0.5-0.1-0.9-0.2-1c-0.2-0.2-0.5-0.3-0.9-0.3h-0.2c-0.1-0.2-0.1-0.4-0.1-0.7
	c0-0.3,0-0.5,0.1-0.8c0.3,0,0.6-0.1,0.9-0.1c0.2,0,0.4,0,0.5,0h0.2c0.6,0,1,0.2,1.3,0.5C410.6,16.6,410.7,17.1,410.7,17.7z"/>
<path class="st9" d="M437.3,19.9v6.8c0,1,0.1,1.8,0.3,2.3c-0.3,0.3-0.7,0.4-1.3,0.4c-0.7,0-1-0.4-1-1.3v-7.6c0-1.1-0.1-1.9-0.4-2.4
	c-0.3-0.5-0.8-0.7-1.6-0.7c-0.7,0-1.5,0.2-2.3,0.6c-0.8,0.4-1.4,0.9-2,1.5v9.7c-0.3,0.1-0.6,0.1-1,0.1c-0.4,0-0.7,0-1-0.1V15.9
	l0.2-0.2h0.8c0.4,0,0.7,0.1,0.9,0.3c0.1,0.2,0.2,0.6,0.2,1.1v0.4c0.6-0.6,1.3-1.1,2.2-1.4c0.8-0.3,1.7-0.5,2.5-0.5
	c1.2,0,2.1,0.4,2.7,1.2C437,17.6,437.3,18.6,437.3,19.9 M421.5,25.7v-2.7c-0.4-0.1-0.9-0.1-1.4-0.2c-0.5,0-1,0-1.5,0
	c-1,0-1.8,0.2-2.4,0.7c-0.5,0.5-0.8,1.1-0.8,1.9c0,0.8,0.2,1.4,0.6,1.8c0.4,0.4,0.9,0.7,1.6,0.7c0.7,0,1.4-0.2,2.1-0.6
	C420.3,26.9,420.9,26.4,421.5,25.7z M424.2,28.4c-0.2,0.5-0.5,0.9-0.9,1c-0.9-0.3-1.5-1-1.7-1.9c-1.4,1.4-2.8,2-4.1,2
	c-0.7,0-1.3-0.1-1.8-0.3c-0.5-0.2-0.9-0.5-1.3-0.9c-0.3-0.4-0.6-0.8-0.8-1.3c-0.2-0.5-0.3-1-0.3-1.5c0-0.7,0.1-1.4,0.4-1.9
	c0.2-0.6,0.6-1,1-1.4c0.4-0.4,0.9-0.6,1.5-0.8c0.6-0.2,1.2-0.3,1.9-0.3c1.4,0,2.5,0.1,3.3,0.2v-1.4c0-1.9-0.8-2.8-2.5-2.8
	c-1.3,0-2.7,0.4-4.4,1.1c-0.5-0.4-0.7-0.9-0.7-1.6c2-0.9,3.7-1.3,5.3-1.3c2.8,0,4.2,1.5,4.2,4.6v5.6c0,0.7,0,1.2,0.2,1.6
	C423.7,27.8,423.9,28.1,424.2,28.4z"/>
<path class="st9" d="M448.1,20.6v-0.3c0-0.4-0.1-0.8-0.2-1.2c-0.1-0.4-0.3-0.7-0.5-1c-0.2-0.3-0.5-0.5-0.9-0.7
	c-0.4-0.2-0.8-0.3-1.3-0.3c-1,0-1.9,0.5-2.5,1.4c-0.6,1-0.9,2.3-0.9,4c0,1.7,0.3,3,0.9,3.9c0.6,0.9,1.4,1.3,2.4,1.3
	c1.1,0,2.3-0.5,3.7-1.5c0.5,0.3,0.8,0.7,1,1.3c-1.4,1.3-3,2-4.7,2c-0.9,0-1.6-0.2-2.3-0.5c-0.7-0.3-1.2-0.8-1.7-1.4
	c-0.5-0.6-0.8-1.3-1-2.1c-0.2-0.8-0.3-1.7-0.3-2.6c0-1.3,0.1-2.4,0.4-3.3c0.3-0.9,0.7-1.7,1.2-2.3c0.5-0.6,1.1-1.1,1.8-1.4
	c0.7-0.3,1.4-0.4,2.1-0.4c0.8,0,1.5,0.1,2,0.4c0.6,0.2,1.1,0.6,1.5,0.9c0.4,0.4,0.7,0.8,0.9,1.3c0.2,0.5,0.3,0.9,0.3,1.3
	c0,0.9-0.4,1.3-1.1,1.3C448.8,20.7,448.5,20.6,448.1,20.6"/>
<path class="st9" d="M453.6,21.6h6.5v-0.4c0-1.3-0.3-2.3-0.8-3c-0.5-0.8-1.3-1.1-2.4-1.1c-1,0-1.8,0.4-2.4,1.2
	C454,19.1,453.6,20.2,453.6,21.6 M462,23.1h-8.5c0.1,3.1,1.3,4.6,3.5,4.6c1.2,0,2.6-0.4,4-1.1c0.4,0.4,0.6,0.8,0.7,1.4
	c-1.5,1-3.2,1.5-5,1.5c-0.9,0-1.7-0.2-2.4-0.5c-0.7-0.3-1.2-0.8-1.7-1.5c-0.4-0.6-0.7-1.4-0.9-2.2c-0.2-0.9-0.3-1.8-0.3-2.8
	c0-1,0.1-2,0.4-2.8c0.2-0.9,0.6-1.6,1.1-2.2c0.5-0.6,1-1.1,1.7-1.4c0.7-0.3,1.4-0.5,2.3-0.5c0.8,0,1.6,0.1,2.3,0.4
	c0.7,0.3,1.2,0.7,1.7,1.2c0.4,0.5,0.8,1.1,1,1.9c0.2,0.7,0.4,1.5,0.4,2.3c0,0.3,0,0.6,0,0.9C462.1,22.6,462.1,22.9,462,23.1z"/>
</svg>
