<svg width="135" height="136" viewBox="0 0 135 136" fill="none" xmlns="http://www.w3.org/2000/svg">
<path d="M58.5 81.1001L81.9 67.6001L58.5 54.1001V81.1001Z" fill="#303030"/>
<path d="M67.5 0.100098C30.2 0.100098 0 30.3001 0 67.6001C0 104.9 30.2 135.1 67.5 135.1C104.8 135.1 135 104.9 135 67.6001C135 30.3001 104.8 0.100098 67.5 0.100098ZM110.7 89.3001C109.7 93.2001 106.6 96.2001 102.7 97.3001C95.7 99.2001 67.5 99.2001 67.5 99.2001C67.5 99.2001 39.4 99.2001 32.3 97.3001C28.4 96.3001 25.4 93.2001 24.3 89.3001C22.4 82.3001 22.4 67.6001 22.4 67.6001C22.4 67.6001 22.4 53.0001 24.3 45.9001C25.3 42.0001 28.4 39.0001 32.3 37.9001C39.3 36.0001 67.5 36.0001 67.5 36.0001C67.5 36.0001 95.6 36.0001 102.7 37.9001C106.6 38.9001 109.6 42.0001 110.7 45.9001C112.6 52.9001 112.6 67.6001 112.6 67.6001C112.6 67.6001 112.5 82.3001 110.7 89.3001Z" fill="#303030"/>
</svg>
